Coordinates
version=1
nRows=8
nColumns=34
inDegrees=yes

Units are S.I. units (second, meters, Newtons, ...)
If the header above contains a line with 'inDegrees', this indicates whether rotational values are in degrees (yes) or radians (no).

endheader
time	pelvis_tilt	pelvis_list	pelvis_rotation	pelvis_tx	pelvis_ty	pelvis_tz	hip_flexion_r	hip_adduction_r	hip_rotation_r	knee_angle_r	ankle_angle_r	subtalar_angle_r	mtp_angle_r	hip_flexion_l	hip_adduction_l	hip_rotation_l	knee_angle_l	ankle_angle_l	subtalar_angle_l	mtp_angle_l	lumbar_extension	lumbar_bending	lumbar_rotation	arm_flex_r	arm_add_r	arm_rot_r	elbow_flex_r	pro_sup_r	arm_flex_l	arm_add_l	arm_rot_l	elbow_flex_l	pro_sup_l
     11.18333330	      9.21487647	    -14.05148130	      3.81978665	      0.57064463	      0.93842261	     -0.13016222	     55.07148124	      2.96226863	    -15.34995616	     30.04150373	      1.28042780	     -2.50109021	      0.00000000	     -4.27988900	    -10.14248393	     -9.55081858	     15.42928720	     15.33967959	      9.26893324	      0.00000000	    -17.33055631	      8.58215206	     -2.39719042	     68.57558278	     10.03282809	     67.76512351	    118.22235138	     97.58373038	     49.18131837	      1.14188296	     41.41411914	    106.38400392	     75.02110854
     11.20000000	      9.20218765	    -14.23611787	      3.80483641	      0.56992103	      0.93798602	     -0.12957161	     55.37677604	      3.16739376	    -15.53700214	     29.57128290	      1.31008708	     -2.39528228	      0.00000000	     -4.87359934	    -10.19782966	     -9.40843561	     14.45646638	     15.47203448	      9.22903961	      0.00000000	    -16.81312174	      8.73415548	     -2.53307184	     68.63086077	      9.92210755	     67.61327382	    118.24929609	     97.52324905	     49.20249445	      1.33571560	     41.48970616	    106.56229812	     75.06531531
     11.21666670	      9.49987542	    -14.60119032	      4.01739729	      0.57120889	      0.93958578	     -0.13001235	     55.03996067	      3.45731300	    -15.92969779	     28.87750907	      1.33600360	     -1.59483362	      0.00000000	     -5.68975153	    -10.48494993	     -9.24491273	     13.63181654	     15.48236769	      8.78365110	      0.00000000	    -16.63952413	      9.30862598	     -2.15323647	     68.14865022	      9.31356006	     67.20135046	    118.16324108	     97.24336945	     48.58787077	      1.20519565	     41.42976883	    106.40936703	     75.27086372
     11.23333330	      9.69664871	    -14.77166725	      3.83973908	      0.57015917	      0.93815809	     -0.13001941	     55.15564439	      3.68812745	    -16.05674880	     28.89469095	      1.28814657	     -1.26534700	      0.00000000	     -6.27397208	    -10.43385320	     -9.08481550	     13.35867552	     16.03796389	      8.35181842	      0.00000000	    -16.49870808	      9.45592615	     -2.21407890	     68.06322109	      9.15650167	     67.04507739	    118.22245144	     97.08294921	     48.84692343	      1.03734481	     41.00335655	    106.35760662	     75.39731086
     11.25000000	     10.08531656	    -14.99978200	      4.17132269	      0.57001407	      0.93658302	     -0.12921295	     55.12028104	      3.77677799	    -16.27646520	     28.77733724	      1.46914076	     -0.38353009	      0.00000000	     -6.70253277	    -10.55344354	     -8.87594956	     13.15294652	     16.43893620	      7.45987180	      0.00000000	    -16.60998004	      9.89719678	     -2.06670484	     68.13774370	      8.81857696	     66.60107546	    117.86133696	     96.69208426	     48.87248560	      1.33883875	     40.86391438	    106.74902487	     75.78602328
     11.26666670	     10.36794328	    -15.08289968	      4.47527767	      0.56977422	      0.93581487	     -0.12772981	     55.21065675	      3.87925085	    -16.09690124	     28.88549957	      1.61859674	     -0.27056396	      0.00000000	     -6.72484365	    -10.65212450	     -9.05600945	     13.47350185	     16.93954759	      6.83445539	      0.00000000	    -16.63399134	      9.96055737	     -2.14442213	     68.09395965	      8.47969659	     66.49663649	    117.57025751	     96.58795109	     49.00269612	      1.37363822	     40.88779018	    106.88192592	     75.90911773
     11.28333330	     10.53204978	    -15.19190596	      4.68944906	      0.57048621	      0.93297714	     -0.12637556	     55.45342624	      4.03814239	    -15.93567829	     28.94475837	      1.76957216	     -0.17895899	      0.00000000	     -6.81351078	    -10.73401366	     -9.13356759	     13.47598552	     17.49444843	      6.16068278	      0.00000000	    -16.65153219	     10.03245948	     -2.37323746	     68.01354848	      8.58552229	     66.43376946	    117.60729412	     96.49395220	     49.32841136	      1.31373391	     40.96056068	    106.84192281	     76.03699832
     11.30000000	     10.81658183	    -15.17725773	      5.08093154	      0.56973390	      0.93148991	     -0.12604275	     55.47141244	      4.01058812	    -15.74242059	     28.96541546	      1.99813836	      0.02005183	      0.00000000	     -6.81378012	    -10.63625547	     -8.49232521	     13.58622907	     17.52947103	      4.51061750	      0.00000000	    -16.83732432	     10.04814710	     -2.52234475	     67.88313218	      8.57275559	     66.03518989	    117.52084124	     96.11597546	     49.86490085	      1.10486683	     41.82539405	    107.08376772	     76.61802315
